HIERARCHY
ROOT Hips
{
	OFFSET 0.000000 0.000000 0.000000
	CHANNELS 6 Xposition Yposition Zposition Zrotation Yrotation Xrotation 
	JOINT LHipJoint
	{
		OFFSET 0.000000 0.000000 0.000000
		CHANNELS 3 Zrotation Yrotation Xrotation
		JOINT LeftUpLeg
		{
			OFFSET 1.363060 -1.794630 0.839290
			CHANNELS 3 Zrotation Yrotation Xrotation
			JOINT LeftLeg
			{
				OFFSET 2.448110 -6.726130 0.000000
				CHANNELS 3 Zrotation Yrotation Xrotation
				JOINT LeftFoot
				{
					OFFSET 2.562200 -7.039590 0.000000
					CHANNELS 3 Zrotation Yrotation Xrotation
					JOINT LeftToeBase
					{
						OFFSET 0.157640 -0.433110 2.322550
						CHANNELS 3 Zrotation Yrotation Xrotation
						End Site
						{
							OFFSET 0.000000 0.000000 0.000000
						}
					}
				}
			}
		}
	}
	JOINT RHipJoint
	{
		OFFSET 0.000000 0.000000 0.000000
		CHANNELS 3 Zrotation Yrotation Xrotation
		JOINT RightUpLeg
		{
			OFFSET -1.305520 -1.794630 0.839290
			CHANNELS 3 Zrotation Yrotation Xrotation
			JOINT RightLeg
			{
				OFFSET -2.542530 -6.985550 0.000000
				CHANNELS 3 Zrotation Yrotation Xrotation
				JOINT RightFoot
				{
					OFFSET -2.568260 -7.056230 0.000000
					CHANNELS 3 Zrotation Yrotation Xrotation
					JOINT RightToeBase
					{
						OFFSET -0.164730 -0.452590 2.363150
						CHANNELS 3 Zrotation Yrotation Xrotation
						End Site
						{
							OFFSET 0.000000 0.000000 0.000000
						}
					}
				}
			}
		}
	}
	JOINT LowerBack
	{
		OFFSET 0.000000 0.000000 0.000000
		CHANNELS 3 Zrotation Yrotation Xrotation
		JOINT Spine
		{
			OFFSET 0.028270 2.035590 -0.193380
			CHANNELS 3 Zrotation Yrotation Xrotation
			JOINT Spine1
			{
				OFFSET 0.056720 2.048850 -0.042750
				CHANNELS 3 Zrotation Yrotation Xrotation
				JOINT Neck
				{
					OFFSET 0.000000 0.000000 0.000000
					CHANNELS 3 Zrotation Yrotation Xrotation
					JOINT Neck1
					{
						OFFSET -0.054170 1.746240 0.172020
						CHANNELS 3 Zrotation Yrotation Xrotation
						JOINT Head
						{
							OFFSET 0.104070 1.761360 -0.123970
							CHANNELS 3 Zrotation Yrotation Xrotation
							End Site
							{
								OFFSET 0.000000 0.000000 0.000000
							}
						}
					}
				}
				JOINT LeftShoulder
				{
					OFFSET 0.000000 0.000000 0.000000
					CHANNELS 3 Zrotation Yrotation Xrotation
					JOINT LeftArm
					{
						OFFSET 3.362410 1.200890 -0.311210
						CHANNELS 3 Zrotation Yrotation Xrotation
						JOINT LeftForeArm
						{
							OFFSET 4.983000 -0.000000 -0.000000
							CHANNELS 3 Zrotation Yrotation Xrotation
							JOINT LeftHand
							{
								OFFSET 3.483560 -0.000000 -0.000000
								CHANNELS 3 Zrotation Yrotation Xrotation
								JOINT LeftFingerBase
								{
									OFFSET 0.000000 0.000000 0.000000
									CHANNELS 3 Zrotation Yrotation Xrotation
									JOINT LeftHandIndex1
									{
										OFFSET 0.715260 -0.000000 -0.000000
										CHANNELS 3 Zrotation Yrotation Xrotation
										End Site
										{
											OFFSET 0.000000 0.000000 0.000000
										}
									}
								}
								JOINT LThumb
								{
									OFFSET 0.000000 0.000000 0.000000
									CHANNELS 3 Zrotation Yrotation Xrotation
									End Site
									{
										OFFSET 0.000000 0.000000 0.000000
									}
								}
							}
						}
					}
				}
				JOINT RightShoulder
				{
					OFFSET 0.000000 0.000000 0.000000
					CHANNELS 3 Zrotation Yrotation Xrotation
					JOINT RightArm
					{
						OFFSET -3.136600 1.374050 -0.404650
						CHANNELS 3 Zrotation Yrotation Xrotation
						JOINT RightForeArm
						{
							OFFSET -5.241900 -0.000000 -0.000000
							CHANNELS 3 Zrotation Yrotation Xrotation
							JOINT RightHand
							{
								OFFSET -3.444170 -0.000000 -0.000000
								CHANNELS 3 Zrotation Yrotation Xrotation
								JOINT RightFingerBase
								{
									OFFSET 0.000000 0.000000 0.000000
									CHANNELS 3 Zrotation Yrotation Xrotation
									JOINT RightHandIndex1
									{
										OFFSET -0.622530 -0.000000 -0.000000
										CHANNELS 3 Zrotation Yrotation Xrotation
										End Site
										{
											OFFSET 0.000000 0.000000 0.000000
										}
									}
								}
								JOINT RThumb
								{
									OFFSET 0.000000 0.000000 0.000000
									CHANNELS 3 Zrotation Yrotation Xrotation
									End Site
									{
										OFFSET 0.000000 0.000000 0.000000
									}
								}
							}
						}
					}
				}
			}
		}
	}
}
MOTION
Frames: 12
Frame Time: 0.008333
-1.470845 16.673551 0.081145 -1.419968 79.460996 11.858652 -10.202107 -0.484455 1.965513 -5.529174 -3.835229 -45.624515 -0.294512 2.612988 52.738833 3.409826 16.786481 -16.858680 -2.382200 0.000000 -4.657700 7.907270 -0.924536 1.895780 15.963975 9.418169 -20.206259 2.312704 -1.169072 33.530046 -3.293818 -7.029835 -28.134483 3.254200 0.000000 -0.369600 -0.197781 -0.516878 -3.990212 -0.956615 -0.704287 -4.552398 -6.709480 -0.919783 -2.990112 9.725107 1.522567 -5.388052 -4.390150 -0.363582 0.567898 0.000000 0.000000 0.000000 -5.288786 1.639758 4.900926 -73.887429 19.392523 14.601528 -4.182954 -6.258718 -0.020471 -3.008002 11.601786 -0.296864 -0.095401 -0.014921 -0.000000 0.000000 0.000000 0.000000 0.000000 0.000000 0.000000 18.493781 8.650413 1.110662 77.553270 34.431422 33.927254 1.757097 35.187280 0.002512 -0.962314 11.146127 -0.098583 0.030018 -0.333027 -0.000000 0.000000 0.000000 0.000000 0.000000 0.000000 0.000000 
-1.304801 16.763373 0.130195 1.890220 79.696153 15.252791 -10.022491 -0.510362 2.115519 -6.401282 -3.977004 -45.127523 -0.506181 2.251803 48.350709 3.390161 16.509849 -15.548476 -1.922300 -0.000000 -5.131500 7.919472 -1.050305 1.895734 15.296071 8.919421 -18.293140 2.400243 -0.888051 30.281487 -3.163400 -6.718575 -27.110708 2.983900 0.000000 -0.687200 -1.196123 -0.434302 -4.213891 -1.141301 -0.545701 -4.579608 -6.644220 -0.758280 -2.945867 9.566199 1.017441 -5.508911 -4.267946 -0.354588 0.539014 0.000000 0.000000 0.000000 -5.286505 2.291384 4.815764 -72.980970 21.406684 17.177860 -4.129044 -8.429691 -0.019396 -2.536744 11.057686 -0.237977 -0.090845 -0.032838 -0.000000 0.000000 0.000000 0.000000 0.000000 0.000000 0.000000 17.893824 8.344094 0.949864 77.786502 35.953818 35.622280 1.683630 37.588935 0.002933 -0.687392 10.635811 -0.067376 0.025767 -0.342122 -0.000000 0.000000 0.000000 0.000000 0.000000 0.000000 0.000000 
-1.136214 16.848387 0.179154 5.173349 79.952571 18.592970 -9.832740 -0.515379 2.239976 -7.354732 -3.977882 -44.488650 -0.725326 1.873041 43.775032 3.312636 16.022284 -14.028899 -1.393600 0.000000 -5.869700 7.985354 -1.190056 1.907020 14.624211 8.349730 -16.342576 2.475616 -0.607267 26.949970 -3.005309 -6.372864 -25.947669 2.687500 0.000001 -1.134000 -2.155077 -0.357069 -4.422078 -1.318782 -0.393682 -4.603848 -6.579514 -0.602889 -2.901497 9.404862 0.547878 -5.599733 -4.140123 -0.345279 0.518357 0.000000 0.000000 0.000000 -5.254878 2.950739 4.709466 -71.951997 23.329812 19.555048 -4.049058 -10.497904 -0.017345 -1.786996 10.331467 -0.155084 -0.084990 -0.050305 -0.000000 0.000000 0.000000 0.000000 0.000000 0.000000 0.000000 17.255738 8.038164 0.791012 77.923307 37.418698 36.993623 1.615610 39.979573 0.003483 -0.392946 10.048897 -0.036480 0.020844 -0.349619 -0.000000 0.000000 0.000000 0.000000 0.000000 0.000000 0.000000 
-0.965401 16.927674 0.226936 8.264269 80.200543 21.717627 -9.633635 -0.490338 2.340558 -8.360869 -3.824937 -43.734050 -0.964655 1.485679 39.054223 3.163538 15.279461 -12.324549 -0.824700 -0.000001 -6.901100 8.109603 -1.336876 1.928397 13.969452 7.719922 -14.378585 2.533413 -0.330503 23.594287 -2.818154 -5.982967 -24.638144 2.367800 -0.000000 -1.739900 -3.041635 -0.275183 -4.612199 -1.482863 -0.241255 -4.625859 -6.512850 -0.446515 -2.859560 9.231258 0.121155 -5.660327 -4.007049 -0.335720 0.506133 0.000000 0.000000 0.000000 -5.205478 3.611007 4.583702 -70.832084 25.176198 21.666673 -3.958444 -12.455953 -0.014480 -0.884623 9.422480 -0.067285 -0.078742 -0.067329 -0.000000 0.000000 0.000000 0.000000 0.000000 0.000000 0.000000 16.569110 7.746110 0.636580 77.954879 38.846391 38.098316 1.553089 42.340940 0.004097 -0.110654 9.447759 -0.009691 0.015766 -0.356045 -0.000000 0.000000 0.000000 0.000000 0.000000 0.000000 0.000000 
-0.792724 17.000359 0.272409 10.992971 80.410837 24.459975 -9.433334 -0.431687 2.422504 -9.382926 -3.516519 -42.898877 -1.236650 1.098612 34.247666 2.934204 14.254731 -10.472221 -0.256800 0.000000 -8.254000 8.284750 -1.486215 1.954336 13.352771 7.033318 -12.427654 2.571562 -0.062763 20.280191 -2.601189 -5.531767 -23.181327 2.029100 -0.000001 -2.545600 -3.830789 -0.177686 -4.783767 -1.628614 -0.079903 -4.646671 -6.440181 -0.280616 -2.821289 9.032593 -0.246956 -5.692891 -3.868315 -0.325875 0.501877 0.000000 0.000000 0.000000 -5.148094 4.283616 4.441952 -69.650021 26.941735 23.482819 -3.870813 -14.296519 -0.011075 0.045311 8.343769 0.008318 -0.072920 -0.083843 -0.000000 0.000000 0.000000 0.000000 0.000000 0.000000 0.000000 15.814794 7.492091 0.486464 77.871711 40.239886 38.948771 1.494790 44.674385 0.004746 0.151106 8.873175 0.012492 0.010655 -0.361925 -0.000000 0.000000 0.000000 0.000000 0.000000 0.000000 0.000000 
-0.618480 17.065758 0.314250 13.177873 80.559195 26.645990 -9.247668 -0.345498 2.493835 -10.373347 -3.059363 -42.033339 -1.548970 0.718800 29.434695 2.623512 12.937530 -8.525377 0.261000 -0.000000 -9.937300 8.488621 -1.637150 1.980400 12.800244 6.301600 -10.518125 2.592739 0.191122 17.068658 -2.357004 -5.008809 -21.583269 1.680300 -0.000001 -3.583300 -4.500455 -0.055324 -4.942776 -1.751402 0.097330 -4.668206 -6.357661 -0.098389 -2.786501 8.796243 -0.544282 -5.701861 -3.723578 -0.315694 0.504638 0.000000 0.000000 0.000000 -5.099083 4.981909 4.287935 -68.432706 28.626170 24.969077 -3.797787 -16.020405 -0.007474 0.889092 7.126459 0.060124 -0.068193 -0.099714 -0.000000 0.000000 0.000000 0.000000 0.000000 0.000000 0.000000 14.975440 7.294987 0.339881 77.666711 41.605342 39.564022 1.439273 46.974817 0.005383 0.382984 8.368552 0.029977 0.005654 -0.367847 -0.000000 0.000000 0.000000 0.000000 0.000000 0.000000 0.000000 
-0.443225 17.123417 0.351678 14.784319 80.638549 28.237558 -9.089737 -0.247209 2.560158 -11.301300 -2.485725 -41.166104 -1.901050 0.347562 24.693177 2.241057 11.346685 -6.546096 0.680500 -0.000000 -11.945100 8.700898 -1.791143 1.993777 12.314156 5.503000 -8.669024 2.604090 0.424089 14.015479 -2.085006 -4.386142 -19.857995 1.329500 0.000000 -4.893200 -5.053506 0.094178 -5.084490 -1.851676 0.292680 -4.689105 -6.265060 0.102278 -2.752011 8.523048 -0.793866 -5.696999 -3.575417 -0.305296 0.511751 0.000000 0.000000 0.000000 -5.079037 5.695843 4.123531 -67.193050 30.246810 26.093679 -3.749163 -17.654383 -0.004052 1.548802 5.827382 0.083530 -0.065020 -0.114814 -0.000000 0.000000 0.000000 0.000000 0.000000 0.000000 0.000000 14.071630 7.135585 0.202672 77.324279 42.987125 40.017775 1.386411 49.223089 0.005895 0.558524 7.969036 0.041762 0.001309 -0.374265 -0.000000 0.000000 0.000000 0.000000 0.000000 0.000000 0.000000 
-0.267312 17.173043 0.383945 15.760032 80.648118 29.185025 -8.972134 -0.156011 2.627070 -12.129204 -1.826234 -40.338946 -2.282026 -0.014439 20.113151 1.805170 9.512665 -4.608844 0.962800 0.000000 -14.254599 8.897197 -1.950436 1.987504 11.906021 4.628933 -6.898489 2.615240 0.632102 11.158799 -1.788003 -3.649171 -18.019492 0.989200 0.000000 -6.548900 -5.485652 0.270322 -5.210427 -1.927829 0.505071 -4.708827 -6.160223 0.320123 -2.713894 8.208863 -0.993512 -5.686587 -3.424539 -0.294638 0.520981 0.000000 0.000000 0.000000 -5.098682 6.442921 3.953230 -65.946802 31.790611 26.873037 -3.729943 -19.199717 -0.001178 1.947490 4.517107 0.081334 -0.063666 -0.128884 -0.000000 0.000000 0.000000 0.000000 0.000000 0.000000 0.000000 13.103625 7.018522 0.073572 76.838203 44.396034 40.323139 1.334236 51.408937 0.006219 0.676207 7.698222 0.049050 -0.002401 -0.381582 -0.000000 0.000000 0.000000 0.000000 0.000000 0.000000 0.000000 
-0.090932 17.214426 0.410533 16.066584 80.593652 29.459650 -8.902922 -0.089811 2.699051 -12.824878 -1.110102 -39.601489 -2.672860 -0.366520 15.781222 1.341039 7.480276 -2.791529 1.085500 -0.000001 -16.827200 9.054641 -2.115745 1.963860 11.590069 3.702093 -5.221614 2.634616 0.815032 8.518915 -1.475563 -2.811161 -16.098063 0.677800 -0.000000 -8.489600 -5.790509 0.472424 -5.329366 -1.978097 0.732989 -4.728999 -6.043077 0.553259 -2.672393 7.851649 -1.133291 -5.673759 -3.271750 -0.283757 0.531573 0.000000 0.000000 0.000000 -5.169146 7.221327 3.781470 -64.712149 33.265080 27.292210 -3.744426 -20.658396 0.000802 2.030396 3.280814 0.062335 -0.064286 -0.141657 -0.000000 0.000000 0.000000 0.000000 0.000000 0.000000 0.000000 12.072773 6.953788 -0.047650 76.195721 45.819389 40.460091 1.279999 53.540029 0.006365 0.752433 7.546495 0.053641 -0.005876 -0.389912 -0.000000 0.000000 0.000000 0.000000 0.000000 0.000000 0.000000 
0.085353 17.247602 0.431700 15.825378 80.486760 29.171692 -8.876941 -0.058742 2.774066 -13.391205 -0.373459 -38.955317 -3.052491 -0.708996 11.751069 0.877328 5.322303 -1.161154 1.050600 -0.000000 -19.574800 9.171035 -2.285016 1.911919 11.345696 2.688945 -3.635294 2.668327 0.970304 6.112433 -1.148762 -1.851110 -14.111414 0.407100 -0.000000 -10.812200 -5.985805 0.692970 -5.427284 -2.005538 0.970419 -4.744088 -5.914846 0.795764 -2.618805 7.462558 -1.241012 -5.671618 -3.119836 -0.272699 0.539500 0.000000 0.000000 0.000000 -5.285742 8.039682 3.611606 -63.497495 34.646501 27.416308 -3.789243 -22.030689 0.001639 1.781211 2.209347 0.037830 -0.066658 -0.152898 -0.000000 0.000000 0.000000 0.000000 0.000000 0.000000 0.000000 11.013034 6.913970 -0.158675 75.390087 47.297459 40.478132 1.223026 55.589939 0.006250 0.779307 7.515246 0.055634 -0.009013 -0.399264 -0.000000 0.000000 0.000000 0.000000 0.000000 0.000000 0.000000 
0.261369 17.272660 0.447669 15.067950 80.335168 28.360273 -8.889172 -0.065221 2.852341 -13.828345 0.367637 -38.430722 -3.400295 -1.038632 8.073996 0.439758 3.115354 0.225518 0.880200 -0.000000 -22.381900 9.240479 -2.454728 1.838789 11.172545 1.622935 -2.143754 2.718629 1.101056 3.941975 -0.820024 -0.796619 -12.102859 0.194500 -0.000000 -13.399801 -6.073823 0.928829 -5.510745 -2.010479 1.214170 -4.754827 -5.777923 1.044154 -2.553448 7.047807 -1.314609 -5.681807 -2.970341 -0.261569 0.544222 0.000000 0.000000 0.000000 -5.448193 8.885110 3.446894 -62.323513 35.943621 27.242643 -3.862691 -23.308727 0.001153 1.208222 1.384376 0.017017 -0.070565 -0.162446 -0.000000 0.000000 0.000000 0.000000 0.000000 0.000000 0.000000 9.939784 6.899434 -0.258064 74.408593 48.820653 40.360858 1.161233 57.557996 0.005878 0.770828 7.577735 0.055724 -0.012216 -0.409478 -0.000000 0.000000 0.000000 0.000000 0.000000 0.000000 0.000000 
0.436832 17.289806 0.459034 13.894129 80.148100 27.124601 -8.928616 -0.103658 2.931654 -14.155960 1.097059 -38.033502 -3.700795 -1.351299 4.779381 0.049009 0.954846 1.336004 0.615399 0.000000 -25.114000 9.268979 -2.620386 1.746354 11.053250 0.517123 -0.745026 2.784538 1.208756 2.010439 -0.497709 0.336277 -10.107753 0.050800 -0.000000 -16.233300 -6.067385 1.174497 -5.576708 -1.995453 1.459688 -4.759964 -5.635734 1.293732 -2.476934 6.617882 -1.363581 -5.706249 -2.825381 -0.250513 0.544942 0.000000 0.000000 0.000000 -5.654095 9.736955 3.289036 -61.205907 37.168819 26.787313 -3.960221 -24.489412 -0.000707 0.353373 0.870805 0.003596 -0.075634 -0.170301 -0.000000 0.000000 0.000000 0.000000 0.000000 0.000000 0.000000 8.878271 6.898504 -0.342599 73.241988 50.393213 40.110235 1.093675 59.430627 0.005231 0.734921 7.708687 0.054413 -0.015762 -0.420330 -0.000000 0.000000 0.000000 0.000000 0.000000 0.000000 0.000000 
